# xmcd
#
# Track frame offsets: 
#        150
#        23752
#        50073
#        71047
#        94092
#        120301
#        148058
#        176581
#        189718
#
# Disc length: 2801 seconds
#
# Revision: 0
# Processed by: cddbd v1.5.2PL0 Copyright (c) Steve Scherf et al.
# Submitted via: ExactAudioCopy v0.99pb5
#
DISCID=7f0aef09
DTITLE=Billy Jenkins - Blues Zero Two
DYEAR=2004
DGENRE=Blues
TTITLE0=Blues Zero Two
TTITLE1=This Is A Day To Forget
TTITLE2=I Wanna Stay Here
TTITLE3=Don't Eat That Cake
TTITLE4=White Van Man
TTITLE5=Down In The Deep Freeze
TTITLE6=A Virus Called The Blues
TTITLE7=I'm Staying In The Car
TTITLE8=I Want My Tea
EXTD=
EXTT0=
EXTT1=
EXTT2=
EXTT3=
EXTT4=
EXTT5=
EXTT6=
EXTT7=
EXTT8=
PLAYORDER=
